<?xml version="1.0" encoding="UTF-8" standalone="no"?>
<!DOCTYPE svg PUBLIC "-//W3C//DTD SVG 1.1//EN"
 "http://www.w3.org/Graphics/SVG/1.1/DTD/svg11.dtd">
<!-- Generated by graphviz version 2.43.0 (0)
 -->
<!-- Title: Tree Pages: 1 -->
<svg width="504pt" height="305pt"
 viewBox="0.00 0.00 504.00 304.61" xmlns="http://www.w3.org/2000/svg" xmlns:xlink="http://www.w3.org/1999/xlink">
<g id="graph0" class="graph" transform="scale(0.56 0.56) rotate(0) translate(4 536.31)">
<title>Tree</title>
<polygon fill="white" stroke="transparent" points="-4,4 -4,-536.31 890,-536.31 890,4 -4,4"/>
<!-- 0 -->
<g id="node1" class="node">
<title>0</title>
<path fill="#f6d4bb" stroke="black" d="M310,-518C310,-518 124,-518 124,-518 118,-518 112,-512 112,-506 112,-506 112,-462 112,-462 112,-456 118,-450 124,-450 124,-450 310,-450 310,-450 316,-450 322,-456 322,-462 322,-462 322,-506 322,-506 322,-512 316,-518 310,-518"/>
<text text-anchor="start" x="168.5" y="-502.8" font-family="Helvetica,sans-Serif" font-size="14.00">country ≤ 4.5</text>
<text text-anchor="start" x="120" y="-487.8" font-family="Helvetica,sans-Serif" font-size="14.00">squared_error = 504409.54</text>
<text text-anchor="start" x="150.5" y="-472.8" font-family="Helvetica,sans-Serif" font-size="14.00">samples = 131490</text>
<text text-anchor="start" x="162.5" y="-457.8" font-family="Helvetica,sans-Serif" font-size="14.00">value = 774.44</text>
</g>
<!-- 1 -->
<g id="node2" class="node">
<title>1</title>
<path fill="#fae6d7" stroke="black" d="M198,-64.5C198,-64.5 12,-64.5 12,-64.5 6,-64.5 0,-58.5 0,-52.5 0,-52.5 0,-23.5 0,-23.5 0,-17.5 6,-11.5 12,-11.5 12,-11.5 198,-11.5 198,-11.5 204,-11.5 210,-17.5 210,-23.5 210,-23.5 210,-52.5 210,-52.5 210,-58.5 204,-64.5 198,-64.5"/>
<text text-anchor="start" x="8" y="-49.3" font-family="Helvetica,sans-Serif" font-size="14.00">squared_error = 244701.53</text>
<text text-anchor="start" x="43" y="-34.3" font-family="Helvetica,sans-Serif" font-size="14.00">samples = 87660</text>
<text text-anchor="start" x="50.5" y="-19.3" font-family="Helvetica,sans-Serif" font-size="14.00">value = 569.76</text>
</g>
<!-- 0&#45;&gt;1 -->
<g id="edge1" class="edge">
<title>0&#45;&gt;1</title>
<path fill="none" stroke="black" d="M208.67,-449.99C188.11,-368.48 135.07,-158.21 113.91,-74.32"/>
<polygon fill="black" stroke="black" points="117.27,-73.34 111.43,-64.5 110.49,-75.05 117.27,-73.34"/>
<text text-anchor="middle" x="98.62" y="-82.27" font-family="Helvetica,sans-Serif" font-size="14.00">True</text>
</g>
<!-- 2 -->
<g id="node3" class="node">
<title>2</title>
<path fill="#efb083" stroke="black" d="M422,-369C422,-369 236,-369 236,-369 230,-369 224,-363 224,-357 224,-357 224,-313 224,-313 224,-307 230,-301 236,-301 236,-301 422,-301 422,-301 428,-301 434,-307 434,-313 434,-313 434,-357 434,-357 434,-363 428,-369 422,-369"/>
<text text-anchor="start" x="280.5" y="-353.8" font-family="Helvetica,sans-Serif" font-size="14.00">product ≤ 1.5</text>
<text text-anchor="start" x="232" y="-338.8" font-family="Helvetica,sans-Serif" font-size="14.00">squared_error = 772454.13</text>
<text text-anchor="start" x="267" y="-323.8" font-family="Helvetica,sans-Serif" font-size="14.00">samples = 43830</text>
<text text-anchor="start" x="270" y="-308.8" font-family="Helvetica,sans-Serif" font-size="14.00">value = 1183.81</text>
</g>
<!-- 0&#45;&gt;2 -->
<g id="edge2" class="edge">
<title>0&#45;&gt;2</title>
<path fill="none" stroke="black" d="M242.41,-449.64C258.74,-428.22 280.07,-400.23 297.47,-377.38"/>
<polygon fill="black" stroke="black" points="300.41,-379.3 303.69,-369.22 294.84,-375.06 300.41,-379.3"/>
<text text-anchor="middle" x="307.03" y="-390.3" font-family="Helvetica,sans-Serif" font-size="14.00">False</text>
</g>
<!-- 3 -->
<g id="node4" class="node">
<title>3</title>
<path fill="#ffffff" stroke="black" d="M417.5,-64.5C417.5,-64.5 240.5,-64.5 240.5,-64.5 234.5,-64.5 228.5,-58.5 228.5,-52.5 228.5,-52.5 228.5,-23.5 228.5,-23.5 228.5,-17.5 234.5,-11.5 240.5,-11.5 240.5,-11.5 417.5,-11.5 417.5,-11.5 423.5,-11.5 429.5,-17.5 429.5,-23.5 429.5,-23.5 429.5,-52.5 429.5,-52.5 429.5,-58.5 423.5,-64.5 417.5,-64.5"/>
<text text-anchor="start" x="236.5" y="-49.3" font-family="Helvetica,sans-Serif" font-size="14.00">squared_error = 18432.95</text>
<text text-anchor="start" x="271.5" y="-34.3" font-family="Helvetica,sans-Serif" font-size="14.00">samples = 8766</text>
<text text-anchor="start" x="274.5" y="-19.3" font-family="Helvetica,sans-Serif" font-size="14.00">value = 280.19</text>
</g>
<!-- 2&#45;&gt;3 -->
<g id="edge3" class="edge">
<title>2&#45;&gt;3</title>
<path fill="none" stroke="black" d="M329,-300.73C329,-244.84 329,-132.57 329,-74.94"/>
<polygon fill="black" stroke="black" points="332.5,-74.84 329,-64.84 325.5,-74.84 332.5,-74.84"/>
</g>
<!-- 4 -->
<g id="node5" class="node">
<title>4</title>
<path fill="#eb9c64" stroke="black" d="M646,-220C646,-220 460,-220 460,-220 454,-220 448,-214 448,-208 448,-208 448,-164 448,-164 448,-158 454,-152 460,-152 460,-152 646,-152 646,-152 652,-152 658,-158 658,-164 658,-164 658,-208 658,-208 658,-214 652,-220 646,-220"/>
<text text-anchor="start" x="513.5" y="-204.8" font-family="Helvetica,sans-Serif" font-size="14.00">store ≤ 1.5</text>
<text text-anchor="start" x="456" y="-189.8" font-family="Helvetica,sans-Serif" font-size="14.00">squared_error = 705798.68</text>
<text text-anchor="start" x="491" y="-174.8" font-family="Helvetica,sans-Serif" font-size="14.00">samples = 35064</text>
<text text-anchor="start" x="494" y="-159.8" font-family="Helvetica,sans-Serif" font-size="14.00">value = 1409.71</text>
</g>
<!-- 2&#45;&gt;4 -->
<g id="edge4" class="edge">
<title>2&#45;&gt;4</title>
<path fill="none" stroke="black" d="M379.55,-300.83C413.6,-278.48 458.61,-248.94 494.25,-225.55"/>
<polygon fill="black" stroke="black" points="496.19,-228.47 502.63,-220.05 492.35,-222.61 496.19,-228.47"/>
</g>
<!-- 5 -->
<g id="node6" class="node">
<title>5</title>
<path fill="#f6d3ba" stroke="black" d="M646,-64.5C646,-64.5 460,-64.5 460,-64.5 454,-64.5 448,-58.5 448,-52.5 448,-52.5 448,-23.5 448,-23.5 448,-17.5 454,-11.5 460,-11.5 460,-11.5 646,-11.5 646,-11.5 652,-11.5 658,-17.5 658,-23.5 658,-23.5 658,-52.5 658,-52.5 658,-58.5 652,-64.5 646,-64.5"/>
<text text-anchor="start" x="456" y="-49.3" font-family="Helvetica,sans-Serif" font-size="14.00">squared_error = 137446.65</text>
<text text-anchor="start" x="491" y="-34.3" font-family="Helvetica,sans-Serif" font-size="14.00">samples = 11688</text>
<text text-anchor="start" x="498.5" y="-19.3" font-family="Helvetica,sans-Serif" font-size="14.00">value = 781.45</text>
</g>
<!-- 4&#45;&gt;5 -->
<g id="edge5" class="edge">
<title>4&#45;&gt;5</title>
<path fill="none" stroke="black" d="M553,-151.87C553,-128.96 553,-98.49 553,-74.99"/>
<polygon fill="black" stroke="black" points="556.5,-74.73 553,-64.73 549.5,-74.73 556.5,-74.73"/>
</g>
<!-- 6 -->
<g id="node7" class="node">
<title>6</title>
<path fill="#e58139" stroke="black" d="M874,-64.5C874,-64.5 688,-64.5 688,-64.5 682,-64.5 676,-58.5 676,-52.5 676,-52.5 676,-23.5 676,-23.5 676,-17.5 682,-11.5 688,-11.5 688,-11.5 874,-11.5 874,-11.5 880,-11.5 886,-17.5 886,-23.5 886,-23.5 886,-52.5 886,-52.5 886,-58.5 880,-64.5 874,-64.5"/>
<text text-anchor="start" x="684" y="-49.3" font-family="Helvetica,sans-Serif" font-size="14.00">squared_error = 693942.31</text>
<text text-anchor="start" x="719" y="-34.3" font-family="Helvetica,sans-Serif" font-size="14.00">samples = 23376</text>
<text text-anchor="start" x="722" y="-19.3" font-family="Helvetica,sans-Serif" font-size="14.00">value = 1723.84</text>
</g>
<!-- 4&#45;&gt;6 -->
<g id="edge6" class="edge">
<title>4&#45;&gt;6</title>
<path fill="none" stroke="black" d="M604.74,-151.87C643.05,-127.34 694.9,-94.13 732.44,-70.1"/>
<polygon fill="black" stroke="black" points="734.64,-72.84 741.18,-64.5 730.87,-66.95 734.64,-72.84"/>
</g>
</g>
</svg>
